<?xml version="1.0" encoding="UTF-8" standalone="no"?>
<!DOCTYPE svg PUBLIC "-//W3C//DTD SVG 1.1//EN" "http://www.w3.org/Graphics/SVG/1.1/DTD/svg11.dtd">
<svg version="1.1" xmlns="http://www.w3.org/2000/svg" xmlns:xlink="http://www.w3.org/1999/xlink" preserveAspectRatio="xMidYMid meet" viewBox="0 0 640 640" width="640" height="640"><defs><path d="M88.79 231.78C88.79 390.39 296.21 623.24 305.05 633.08C313.34 642.31 327.82 642.3 336.1 633.08C344.93 623.24 552.36 390.39 552.36 231.78C552.36 103.98 448.38 0 320.57 0C192.77 0 88.79 103.98 88.79 231.78ZM203.96 231.78C203.96 167.48 256.27 115.17 320.57 115.17C384.88 115.17 437.19 167.48 437.19 231.78C437.19 296.09 384.88 348.4 320.57 348.4C256.27 348.4 203.96 296.08 203.96 231.78Z" id="aTgAhhfBo"></path><path d="M477.39 227.34C477.39 313.47 407.12 383.4 320.57 383.4C234.02 383.4 163.76 313.47 163.76 227.34C163.76 141.21 234.02 71.29 320.57 71.29C407.12 71.29 477.39 141.21 477.39 227.34Z" id="hKgvx9QYo"></path><path d="M341.77 126.33C339.52 126.33 337.76 128.32 337.94 130.65C338.62 139.45 344.1 209.85 344.78 218.65C345.16 223.56 349.1 227.34 353.83 227.34C359.6 227.34 405.74 227.34 411.51 227.34C416.24 227.34 420.18 223.56 420.56 218.65C421.25 209.85 426.72 139.45 427.4 130.65C427.58 128.32 425.82 126.33 423.58 126.33C407.21 126.33 349.95 126.33 341.77 126.33ZM361.3 217.97C359.02 217.97 357.1 216.12 356.96 213.71C356.53 206.49 353.1 148.69 352.67 141.47C352.52 138.97 354.35 136.82 356.75 136.66C359.15 136.51 361.22 138.41 361.37 140.91C361.8 148.13 365.23 205.93 365.66 213.15C365.8 215.65 363.98 217.8 361.58 217.96C361.48 217.96 361.39 217.97 361.3 217.97ZM387.08 213.43C387.08 215.94 385.13 217.97 382.72 217.97C380.31 217.97 378.36 215.94 378.36 213.43C378.36 206.21 378.36 148.41 378.36 141.19C378.36 138.68 380.31 136.65 382.72 136.65C385.13 136.65 387.08 138.68 387.08 141.19C387.08 155.64 387.08 198.98 387.08 213.43ZM408.58 213.7C408.44 216.11 406.52 217.97 404.23 217.97C404.15 217.97 404.06 217.96 403.97 217.96C401.57 217.81 399.74 215.67 399.88 213.17C400.29 205.94 403.56 148.15 403.97 140.92C404.11 138.42 406.17 136.51 408.58 136.66C410.98 136.81 412.81 138.96 412.67 141.46C411.85 155.9 408.99 206.47 408.58 213.7Z" id="aBDbnMurW"></path><path d="M220.34 126.33C218.1 126.33 216.34 128.32 216.52 130.65C217.2 139.45 222.67 209.85 223.36 218.65C223.74 223.56 227.68 227.34 232.41 227.34C238.18 227.34 284.32 227.34 290.09 227.34C294.82 227.34 298.76 223.56 299.14 218.65C299.82 209.85 305.29 139.45 305.98 130.65C306.16 128.32 304.4 126.33 302.15 126.33C285.79 126.33 228.52 126.33 220.34 126.33ZM239.88 217.97C237.59 217.97 235.68 216.12 235.53 213.71C235.11 206.49 231.68 148.69 231.25 141.47C231.1 138.97 232.93 136.82 235.33 136.66C237.72 136.51 239.8 138.41 239.95 140.91C240.38 148.13 243.8 205.93 244.23 213.15C244.38 215.65 242.55 217.8 240.15 217.96C240.06 217.96 239.97 217.97 239.88 217.97ZM265.65 213.43C265.65 215.94 263.7 217.97 261.3 217.97C258.89 217.97 256.94 215.94 256.94 213.43C256.94 206.21 256.94 148.41 256.94 141.19C256.94 138.68 258.89 136.65 261.3 136.65C263.7 136.65 265.65 138.68 265.65 141.19C265.65 155.64 265.65 198.98 265.65 213.43ZM287.16 213.7C287.02 216.11 285.1 217.97 282.81 217.97C282.72 217.97 282.64 217.96 282.55 217.96C280.15 217.81 278.32 215.67 278.46 213.17C278.87 205.94 282.14 148.15 282.55 140.92C282.69 138.42 284.75 136.51 287.15 136.66C289.56 136.81 291.39 138.96 291.25 141.46C290.43 155.9 287.57 206.47 287.16 213.7Z" id="a2h6ubItLc"></path><path d="M220.34 246.27C218.1 246.27 216.34 248.25 216.52 250.58C217.2 259.38 222.67 329.78 223.36 338.58C223.74 343.49 227.68 347.28 232.41 347.28C238.18 347.28 284.32 347.28 290.09 347.28C294.82 347.28 298.76 343.49 299.14 338.58C299.82 329.78 305.29 259.38 305.98 250.58C306.16 248.25 304.4 246.27 302.15 246.27C285.79 246.27 228.52 246.27 220.34 246.27ZM239.88 337.9C237.59 337.9 235.68 336.05 235.53 333.64C235.11 326.42 231.68 268.62 231.25 261.4C231.1 258.9 232.93 256.75 235.33 256.6C237.72 256.44 239.8 258.34 239.95 260.84C240.38 268.07 243.8 325.86 244.23 333.09C244.38 335.59 242.55 337.74 240.15 337.89C240.06 337.9 239.97 337.9 239.88 337.9ZM265.65 333.37C265.65 335.87 263.7 337.9 261.3 337.9C258.89 337.9 256.94 335.87 256.94 333.37C256.94 326.14 256.94 268.35 256.94 261.12C256.94 258.62 258.89 256.59 261.3 256.59C263.7 256.59 265.65 258.62 265.65 261.12C265.65 275.57 265.65 318.92 265.65 333.37ZM287.16 333.63C287.02 336.04 285.1 337.9 282.81 337.9C282.72 337.9 282.64 337.9 282.55 337.89C280.15 337.74 278.32 335.6 278.46 333.1C278.87 325.87 282.14 268.08 282.55 260.85C282.69 258.35 284.75 256.45 287.15 256.59C289.56 256.74 291.39 258.89 291.25 261.39C290.43 275.84 287.57 326.41 287.16 333.63Z" id="a186lgluz"></path><path d="M341.77 246.27C339.52 246.27 337.76 248.25 337.94 250.58C338.62 259.38 344.1 329.78 344.78 338.58C345.16 343.49 349.1 347.28 353.83 347.28C359.6 347.28 405.74 347.28 411.51 347.28C416.24 347.28 420.18 343.49 420.56 338.58C421.25 329.78 426.72 259.38 427.4 250.58C427.58 248.25 425.82 246.27 423.58 246.27C407.21 246.27 349.95 246.27 341.77 246.27ZM361.3 337.9C359.02 337.9 357.1 336.05 356.96 333.64C356.53 326.42 353.1 268.62 352.67 261.4C352.52 258.9 354.35 256.75 356.75 256.6C359.15 256.44 361.22 258.34 361.37 260.84C361.8 268.07 365.23 325.86 365.66 333.09C365.8 335.59 363.98 337.74 361.58 337.89C361.48 337.9 361.39 337.9 361.3 337.9ZM387.08 333.37C387.08 335.87 385.13 337.9 382.72 337.9C380.31 337.9 378.36 335.87 378.36 333.37C378.36 326.14 378.36 268.35 378.36 261.12C378.36 258.62 380.31 256.59 382.72 256.59C385.13 256.59 387.08 258.62 387.08 261.12C387.08 275.57 387.08 318.92 387.08 333.37ZM408.58 333.63C408.44 336.04 406.52 337.9 404.23 337.9C404.15 337.9 404.06 337.9 403.97 337.89C401.57 337.74 399.74 335.6 399.88 333.1C400.29 325.87 403.56 268.08 403.97 260.85C404.11 258.35 406.17 256.45 408.58 256.59C410.98 256.74 412.81 258.89 412.67 261.39C411.85 275.84 408.99 326.41 408.58 333.63Z" id="a1jUorAWyW"></path></defs><g><g><g><use xlink:href="#aTgAhhfBo" opacity="1" fill="#000000" fill-opacity="1"></use><g><use xlink:href="#aTgAhhfBo" opacity="1" fill-opacity="0" stroke="#000000" stroke-width="1" stroke-opacity="0"></use></g></g><g><use xlink:href="#hKgvx9QYo" opacity="1" fill="#ffffff" fill-opacity="1"></use></g><g><use xlink:href="#aBDbnMurW" opacity="1" fill="#2dd36f" fill-opacity="1"></use><g><use xlink:href="#aBDbnMurW" opacity="1" fill-opacity="0" stroke="#000000" stroke-width="1" stroke-opacity="0"></use></g></g><g><use xlink:href="#a2h6ubItLc" opacity="1" fill="#3880ff" fill-opacity="1"></use><g><use xlink:href="#a2h6ubItLc" opacity="1" fill-opacity="0" stroke="#000000" stroke-width="1" stroke-opacity="0"></use></g></g><g><use xlink:href="#a186lgluz" opacity="1" fill="#ffc409" fill-opacity="1"></use><g><use xlink:href="#a186lgluz" opacity="1" fill-opacity="0" stroke="#000000" stroke-width="1" stroke-opacity="0"></use></g></g><g><use xlink:href="#a1jUorAWyW" opacity="1" fill="#eb445a" fill-opacity="1"></use><g><use xlink:href="#a1jUorAWyW" opacity="1" fill-opacity="0" stroke="#000000" stroke-width="1" stroke-opacity="0"></use></g></g></g></g></svg>