<?xml version="1.0" encoding="UTF-8" standalone="no"?>
<!DOCTYPE svg PUBLIC "-//W3C//DTD SVG 1.1//EN" "http://www.w3.org/Graphics/SVG/1.1/DTD/svg11.dtd">
<svg version="1.1" xmlns="http://www.w3.org/2000/svg" xmlns:xlink="http://www.w3.org/1999/xlink" preserveAspectRatio="xMidYMid meet" viewBox="0 0 640 640" width="640" height="640"><defs><path d="M88.79 231.78C88.79 390.39 296.21 623.24 305.05 633.08C313.34 642.31 327.82 642.3 336.1 633.08C344.93 623.24 552.36 390.39 552.36 231.78C552.36 103.98 448.38 0 320.57 0C192.77 0 88.79 103.98 88.79 231.78ZM203.96 231.78C203.96 167.48 256.27 115.17 320.57 115.17C384.88 115.17 437.19 167.48 437.19 231.78C437.19 296.09 384.88 348.4 320.57 348.4C256.27 348.4 203.96 296.08 203.96 231.78Z" id="aTgAhhfBo"></path><path d="M477.39 227.34C477.39 313.47 407.12 383.4 320.57 383.4C234.02 383.4 163.76 313.47 163.76 227.34C163.76 141.21 234.02 71.29 320.57 71.29C407.12 71.29 477.39 141.21 477.39 227.34Z" id="b17f8TFKiq"></path><path d="M263.85 153.41C260.75 153.41 258.3 156.17 258.55 159.39C259.5 171.6 267.08 269.21 268.03 281.42C268.56 288.23 274.02 293.48 280.58 293.48C288.58 293.48 352.57 293.48 360.57 293.48C367.13 293.48 372.59 288.23 373.12 281.42C374.06 269.21 381.65 171.6 382.6 159.39C382.85 156.17 380.4 153.41 377.3 153.41C354.61 153.41 275.2 153.41 263.85 153.41ZM290.94 280.47C287.78 280.47 285.12 277.91 284.92 274.57C284.32 264.55 279.57 184.41 278.98 174.4C278.77 170.93 281.31 167.95 284.64 167.73C287.95 167.52 290.83 170.16 291.04 173.62C291.63 183.64 296.39 263.78 296.98 273.8C297.19 277.26 294.65 280.25 291.32 280.46C291.2 280.47 291.07 280.47 290.94 280.47ZM326.68 274.19C326.68 277.66 323.98 280.47 320.64 280.47C317.3 280.47 314.6 277.66 314.6 274.19C314.6 264.17 314.6 184.03 314.6 174.01C314.6 170.54 317.3 167.72 320.64 167.72C323.98 167.72 326.68 170.54 326.68 174.01C326.68 194.04 326.68 254.15 326.68 274.19ZM356.5 274.55C356.31 277.9 353.65 280.47 350.47 280.47C350.35 280.47 350.23 280.47 350.11 280.46C346.78 280.26 344.24 277.28 344.44 273.82C345 263.8 349.54 183.66 350.11 173.64C350.31 170.17 353.16 167.53 356.5 167.73C359.83 167.94 362.37 170.91 362.17 174.38C361.04 194.41 357.07 264.54 356.5 274.55Z" id="fvPMlC2kQ"></path></defs><g><g><g><use xlink:href="#aTgAhhfBo" opacity="1" fill="#000000" fill-opacity="1"></use><g><use xlink:href="#aTgAhhfBo" opacity="1" fill-opacity="0" stroke="#000000" stroke-width="1" stroke-opacity="0"></use></g></g><g><use xlink:href="#b17f8TFKiq" opacity="1" fill="#ffffff" fill-opacity="1"></use></g><g><use xlink:href="#fvPMlC2kQ" opacity="1" fill="#3880ff" fill-opacity="1"></use><g><use xlink:href="#fvPMlC2kQ" opacity="1" fill-opacity="0" stroke="#000000" stroke-width="1" stroke-opacity="0"></use></g></g></g></g></svg>