<?xml version="1.0" encoding="UTF-8" standalone="no"?>
<!DOCTYPE svg PUBLIC "-//W3C//DTD SVG 1.1//EN" "http://www.w3.org/Graphics/SVG/1.1/DTD/svg11.dtd">
<svg version="1.1" xmlns="http://www.w3.org/2000/svg" xmlns:xlink="http://www.w3.org/1999/xlink" preserveAspectRatio="xMidYMid meet" viewBox="0 0 640 640" width="640" height="640"><defs><path d="M88.79 231.78C88.79 390.39 296.21 623.24 305.05 633.08C313.34 642.31 327.82 642.3 336.1 633.08C344.93 623.24 552.36 390.39 552.36 231.78C552.36 103.98 448.38 0 320.57 0C192.77 0 88.79 103.98 88.79 231.78ZM203.96 231.78C203.96 167.48 256.27 115.17 320.57 115.17C384.88 115.17 437.19 167.48 437.19 231.78C437.19 296.09 384.88 348.4 320.57 348.4C256.27 348.4 203.96 296.08 203.96 231.78Z" id="aTgAhhfBo"></path><path d="M477.39 227.34C477.39 313.47 407.12 383.4 320.57 383.4C234.02 383.4 163.76 313.47 163.76 227.34C163.76 141.21 234.02 71.29 320.57 71.29C407.12 71.29 477.39 141.21 477.39 227.34Z" id="b4534oAUAB"></path><path d="M341.77 126.33C339.52 126.33 337.76 128.32 337.94 130.65C338.62 139.45 344.1 209.85 344.78 218.65C345.16 223.56 349.1 227.34 353.83 227.34C359.6 227.34 405.74 227.34 411.51 227.34C416.24 227.34 420.18 223.56 420.56 218.65C421.25 209.85 426.72 139.45 427.4 130.65C427.58 128.32 425.82 126.33 423.58 126.33C407.21 126.33 349.95 126.33 341.77 126.33ZM361.3 217.97C359.02 217.97 357.1 216.12 356.96 213.71C356.53 206.49 353.1 148.69 352.67 141.47C352.52 138.97 354.35 136.82 356.75 136.66C359.15 136.51 361.22 138.41 361.37 140.91C361.8 148.13 365.23 205.93 365.66 213.15C365.8 215.65 363.98 217.8 361.58 217.96C361.48 217.96 361.39 217.97 361.3 217.97ZM387.08 213.43C387.08 215.94 385.13 217.97 382.72 217.97C380.31 217.97 378.36 215.94 378.36 213.43C378.36 206.21 378.36 148.41 378.36 141.19C378.36 138.68 380.31 136.65 382.72 136.65C385.13 136.65 387.08 138.68 387.08 141.19C387.08 155.64 387.08 198.98 387.08 213.43ZM408.58 213.7C408.44 216.11 406.52 217.97 404.23 217.97C404.15 217.97 404.06 217.96 403.97 217.96C401.57 217.81 399.74 215.67 399.88 213.17C400.29 205.94 403.56 148.15 403.97 140.92C404.11 138.42 406.17 136.51 408.58 136.66C410.98 136.81 412.81 138.96 412.67 141.46C411.85 155.9 408.99 206.47 408.58 213.7Z" id="j2zkeVNIio"></path><path d="M220.34 126.33C218.1 126.33 216.34 128.32 216.52 130.65C217.2 139.45 222.67 209.85 223.36 218.65C223.74 223.56 227.68 227.34 232.41 227.34C238.18 227.34 284.32 227.34 290.09 227.34C294.82 227.34 298.76 223.56 299.14 218.65C299.82 209.85 305.29 139.45 305.98 130.65C306.16 128.32 304.4 126.33 302.15 126.33C285.79 126.33 228.52 126.33 220.34 126.33ZM239.88 217.97C237.59 217.97 235.68 216.12 235.53 213.71C235.11 206.49 231.68 148.69 231.25 141.47C231.1 138.97 232.93 136.82 235.33 136.66C237.72 136.51 239.8 138.41 239.95 140.91C240.38 148.13 243.8 205.93 244.23 213.15C244.38 215.65 242.55 217.8 240.15 217.96C240.06 217.96 239.97 217.97 239.88 217.97ZM265.65 213.43C265.65 215.94 263.7 217.97 261.3 217.97C258.89 217.97 256.94 215.94 256.94 213.43C256.94 206.21 256.94 148.41 256.94 141.19C256.94 138.68 258.89 136.65 261.3 136.65C263.7 136.65 265.65 138.68 265.65 141.19C265.65 155.64 265.65 198.98 265.65 213.43ZM287.16 213.7C287.02 216.11 285.1 217.97 282.81 217.97C282.72 217.97 282.64 217.96 282.55 217.96C280.15 217.81 278.32 215.67 278.46 213.17C278.87 205.94 282.14 148.15 282.55 140.92C282.69 138.42 284.75 136.51 287.15 136.66C289.56 136.81 291.39 138.96 291.25 141.46C290.43 155.9 287.57 206.47 287.16 213.7Z" id="effBI6emb"></path><path d="M279.67 247.41C277.43 247.41 275.66 249.4 275.84 251.73C276.53 260.53 282 330.93 282.68 339.73C283.06 344.64 287 348.43 291.73 348.43C297.5 348.43 343.65 348.43 349.42 348.43C354.15 348.43 358.08 344.64 358.47 339.73C359.15 330.93 364.62 260.53 365.31 251.73C365.49 249.4 363.72 247.41 361.48 247.41C345.12 247.41 287.85 247.41 279.67 247.41ZM299.21 339.05C296.92 339.05 295 337.2 294.86 334.79C294.43 327.57 291 269.77 290.57 262.55C290.43 260.05 292.25 257.9 294.66 257.74C297.05 257.59 299.13 259.49 299.27 261.99C299.7 269.22 303.13 327.01 303.56 334.23C303.71 336.73 301.88 338.88 299.48 339.04C299.39 339.04 299.3 339.05 299.21 339.05ZM324.98 334.51C324.98 337.02 323.03 339.05 320.62 339.05C318.22 339.05 316.27 337.02 316.27 334.51C316.27 327.29 316.27 269.49 316.27 262.27C316.27 259.77 318.22 257.74 320.62 257.74C323.03 257.74 324.98 259.77 324.98 262.27C324.98 276.72 324.98 320.07 324.98 334.51ZM346.48 334.78C346.35 337.19 344.43 339.05 342.14 339.05C342.05 339.05 341.96 339.04 341.88 339.04C339.47 338.89 337.64 336.75 337.78 334.25C338.19 327.02 341.47 269.23 341.87 262C342.02 259.5 344.07 257.6 346.48 257.74C348.88 257.89 350.72 260.04 350.58 262.54C349.76 276.99 346.89 327.56 346.48 334.78Z" id="apG0XRFZk"></path></defs><g><g><g><use xlink:href="#aTgAhhfBo" opacity="1" fill="#000000" fill-opacity="1"></use><g><use xlink:href="#aTgAhhfBo" opacity="1" fill-opacity="0" stroke="#000000" stroke-width="1" stroke-opacity="0"></use></g></g><g><use xlink:href="#b4534oAUAB" opacity="1" fill="#ffffff" fill-opacity="1"></use></g><g><use xlink:href="#j2zkeVNIio" opacity="1" fill="#ffc409" fill-opacity="1"></use><g><use xlink:href="#j2zkeVNIio" opacity="1" fill-opacity="0" stroke="#000000" stroke-width="1" stroke-opacity="0"></use></g></g><g><use xlink:href="#effBI6emb" opacity="1" fill="#3880ff" fill-opacity="1"></use><g><use xlink:href="#effBI6emb" opacity="1" fill-opacity="0" stroke="#000000" stroke-width="1" stroke-opacity="0"></use></g></g><g><use xlink:href="#apG0XRFZk" opacity="1" fill="#eb445a" fill-opacity="1"></use><g><use xlink:href="#apG0XRFZk" opacity="1" fill-opacity="0" stroke="#000000" stroke-width="1" stroke-opacity="0"></use></g></g></g></g></svg>