<?xml version="1.0" encoding="UTF-8" standalone="no"?>
<!DOCTYPE svg PUBLIC "-//W3C//DTD SVG 1.1//EN" "http://www.w3.org/Graphics/SVG/1.1/DTD/svg11.dtd">
<svg version="1.1" xmlns="http://www.w3.org/2000/svg" xmlns:xlink="http://www.w3.org/1999/xlink" preserveAspectRatio="xMidYMid meet" viewBox="0 0 640 640" width="640" height="640"><defs><path d="M88.79 231.78C88.79 390.39 296.21 623.24 305.05 633.08C313.34 642.31 327.82 642.3 336.1 633.08C344.93 623.24 552.36 390.39 552.36 231.78C552.36 103.98 448.38 0 320.57 0C192.77 0 88.79 103.98 88.79 231.78ZM203.96 231.78C203.96 167.48 256.27 115.17 320.57 115.17C384.88 115.17 437.19 167.48 437.19 231.78C437.19 296.09 384.88 348.4 320.57 348.4C256.27 348.4 203.96 296.08 203.96 231.78Z" id="aTgAhhfBo"></path><path d="M477.39 227.34C477.39 313.47 407.12 383.4 320.57 383.4C234.02 383.4 163.76 313.47 163.76 227.34C163.76 141.21 234.02 71.29 320.57 71.29C407.12 71.29 477.39 141.21 477.39 227.34Z" id="b17f8TFKiq"></path><path d="M263.85 152.26C260.75 152.26 258.3 155.02 258.55 158.25C259.5 170.45 267.08 268.07 268.03 280.27C268.56 287.08 274.02 292.33 280.58 292.33C288.58 292.33 352.57 292.33 360.57 292.33C367.13 292.33 372.59 287.08 373.12 280.27C374.06 268.06 381.65 170.45 382.6 158.25C382.85 155.02 380.4 152.26 377.3 152.26C354.61 152.26 275.2 152.26 263.85 152.26ZM290.94 279.32C287.78 279.32 285.12 276.76 284.92 273.42C284.32 263.41 279.57 183.27 278.98 173.25C278.77 169.78 281.31 166.8 284.64 166.59C287.95 166.38 290.83 169.01 291.04 172.47C291.63 182.49 296.39 262.63 296.98 272.65C297.19 276.12 294.65 279.1 291.32 279.31C291.2 279.32 291.07 279.32 290.94 279.32ZM326.68 273.04C326.68 276.51 323.98 279.32 320.64 279.32C317.3 279.32 314.6 276.51 314.6 273.04C314.6 263.02 314.6 182.88 314.6 172.86C314.6 169.39 317.3 166.57 320.64 166.57C323.98 166.57 326.68 169.39 326.68 172.86C326.68 192.9 326.68 253 326.68 273.04ZM356.5 273.41C356.31 276.75 353.65 279.32 350.47 279.32C350.35 279.32 350.23 279.32 350.11 279.31C346.78 279.11 344.24 276.13 344.44 272.67C345 262.65 349.54 182.51 350.11 172.49C350.31 169.02 353.16 166.38 356.5 166.58C359.83 166.79 362.37 169.76 362.17 173.23C361.04 193.27 357.07 263.39 356.5 273.41Z" id="a131BvPbm6"></path></defs><g><g><g><use xlink:href="#aTgAhhfBo" opacity="1" fill="#000000" fill-opacity="1"></use><g><use xlink:href="#aTgAhhfBo" opacity="1" fill-opacity="0" stroke="#000000" stroke-width="1" stroke-opacity="0"></use></g></g><g><use xlink:href="#b17f8TFKiq" opacity="1" fill="#ffffff" fill-opacity="1"></use></g><g><use xlink:href="#a131BvPbm6" opacity="1" fill="#eb445a" fill-opacity="1"></use><g><use xlink:href="#a131BvPbm6" opacity="1" fill-opacity="0" stroke="#000000" stroke-width="1" stroke-opacity="0"></use></g></g></g></g></svg>