<?xml version="1.0" encoding="UTF-8" standalone="no"?>
<!DOCTYPE svg PUBLIC "-//W3C//DTD SVG 1.1//EN" "http://www.w3.org/Graphics/SVG/1.1/DTD/svg11.dtd">
<svg version="1.1" xmlns="http://www.w3.org/2000/svg" xmlns:xlink="http://www.w3.org/1999/xlink" preserveAspectRatio="xMidYMid meet" viewBox="0 0 640 640" width="640" height="640"><defs><path d="M88.79 231.78C88.79 390.39 296.21 623.24 305.05 633.08C313.34 642.31 327.82 642.3 336.1 633.08C344.93 623.24 552.36 390.39 552.36 231.78C552.36 103.98 448.38 0 320.57 0C192.77 0 88.79 103.98 88.79 231.78ZM203.96 231.78C203.96 167.48 256.27 115.17 320.57 115.17C384.88 115.17 437.19 167.48 437.19 231.78C437.19 296.09 384.88 348.4 320.57 348.4C256.27 348.4 203.96 296.08 203.96 231.78Z" id="aTgAhhfBo"></path><path d="M477.39 227.34C477.39 313.47 407.12 383.4 320.57 383.4C234.02 383.4 163.76 313.47 163.76 227.34C163.76 141.21 234.02 71.29 320.57 71.29C407.12 71.29 477.39 141.21 477.39 227.34Z" id="b17f8TFKiq"></path><path d="M336.22 157.31C333.11 157.31 330.66 160.07 330.91 163.3C331.86 175.5 339.45 273.12 340.4 285.32C340.93 292.13 346.39 297.38 352.95 297.38C360.95 297.38 424.93 297.38 432.93 297.38C439.49 297.38 444.95 292.13 445.48 285.32C446.43 273.11 454.02 175.5 454.96 163.3C455.22 160.07 452.77 157.31 449.66 157.31C426.97 157.31 347.56 157.31 336.22 157.31ZM363.31 284.37C360.14 284.37 357.48 281.81 357.28 278.47C356.69 268.46 351.93 188.32 351.34 178.3C351.14 174.83 353.67 171.85 357 171.64C360.32 171.43 363.2 174.06 363.4 177.52C364 187.54 368.75 267.68 369.34 277.7C369.55 281.17 367.02 284.15 363.69 284.36C363.56 284.37 363.43 284.37 363.31 284.37ZM399.05 278.09C399.05 281.56 396.34 284.37 393.01 284.37C389.67 284.37 386.96 281.56 386.96 278.09C386.96 268.07 386.96 187.93 386.96 177.91C386.96 174.44 389.67 171.62 393.01 171.62C396.34 171.62 399.05 174.44 399.05 177.91C399.05 197.95 399.05 258.05 399.05 278.09ZM428.86 278.46C428.68 281.8 426.01 284.37 422.84 284.37C422.72 284.37 422.6 284.37 422.48 284.36C419.15 284.16 416.61 281.18 416.8 277.72C417.37 267.7 421.91 187.56 422.48 177.54C422.67 174.07 425.52 171.43 428.86 171.63C432.19 171.84 434.73 174.81 434.54 178.28C433.4 198.32 429.43 268.44 428.86 278.46Z" id="c17OwvmuW7"></path><path d="M194.26 157.31C191.15 157.31 188.7 160.07 188.95 163.3C189.9 175.5 197.49 273.12 198.44 285.32C198.97 292.13 204.43 297.38 210.99 297.38C218.99 297.38 282.97 297.38 290.97 297.38C297.53 297.38 302.99 292.13 303.52 285.32C304.47 273.11 312.06 175.5 313.01 163.3C313.26 160.07 310.81 157.31 307.7 157.31C285.01 157.31 205.6 157.31 194.26 157.31ZM221.35 284.37C218.18 284.37 215.52 281.81 215.32 278.47C214.73 268.46 209.98 188.32 209.38 178.3C209.18 174.83 211.71 171.85 215.04 171.64C218.36 171.43 221.24 174.06 221.44 177.52C222.04 187.54 226.79 267.68 227.39 277.7C227.59 281.17 225.06 284.15 221.73 284.36C221.6 284.37 221.47 284.37 221.35 284.37ZM257.09 278.09C257.09 281.56 254.39 284.37 251.05 284.37C247.71 284.37 245 281.56 245 278.09C245 268.07 245 187.93 245 177.91C245 174.44 247.71 171.62 251.05 171.62C254.38 171.62 257.09 174.44 257.09 177.91C257.09 197.95 257.09 258.05 257.09 278.09ZM286.91 278.46C286.72 281.8 284.05 284.37 280.88 284.37C280.76 284.37 280.64 284.37 280.52 284.36C277.19 284.16 274.65 281.18 274.84 277.72C275.41 267.7 279.95 187.56 280.52 177.54C280.71 174.07 283.56 171.43 286.9 171.63C290.23 171.84 292.78 174.81 292.58 178.28C291.44 198.32 287.47 268.44 286.91 278.46Z" id="dLoPFJIR"></path></defs><g><g><g><use xlink:href="#aTgAhhfBo" opacity="1" fill="#000000" fill-opacity="1"></use><g><use xlink:href="#aTgAhhfBo" opacity="1" fill-opacity="0" stroke="#000000" stroke-width="1" stroke-opacity="0"></use></g></g><g><use xlink:href="#b17f8TFKiq" opacity="1" fill="#ffffff" fill-opacity="1"></use></g><g><use xlink:href="#c17OwvmuW7" opacity="1" fill="#eb445a" fill-opacity="1"></use><g><use xlink:href="#c17OwvmuW7" opacity="1" fill-opacity="0" stroke="#000000" stroke-width="1" stroke-opacity="0"></use></g></g><g><use xlink:href="#dLoPFJIR" opacity="1" fill="#2dd36f" fill-opacity="1"></use><g><use xlink:href="#dLoPFJIR" opacity="1" fill-opacity="0" stroke="#000000" stroke-width="1" stroke-opacity="0"></use></g></g></g></g></svg>